<svg xmlns="http://www.w3.org/2000/svg" viewBox="0 0 24 24" fill="none" stroke="#F7931A" stroke-width="2" stroke-linecap="round" stroke-linejoin="round">
  <path d="M11.767 19.089c4.924.868 9.593-2.535 10.461-7.603.868-5.069-2.489-9.839-7.413-10.707-4.924-.868-9.593 2.535-10.461 7.603-.868 5.069 2.489 9.839 7.413 10.707z"/>
  <path d="M15.46 8.918c.452 2.619-1.595 4.045-4.306 4.499l.88 3.54-2.13.376-.857-3.44c-.554.098-1.121.19-1.686.278l.863 3.46-2.125.376-.881-3.539c-.459.088-.91.174-1.351.254l-2.939.52.413-2.344s1.568-.477 1.538-.49c.858-.151 1.014-.554 1.044-.87l1.05-4.21c.079.015.18.03.293.028l-.291-.052 1.518-6.09c.04-.454-.126-.997-.958-.845.021-.031-1.538.271-1.538.271l-.417-1.879 3.116-.55.88-3.54 2.127-.375-.863 3.46c.567-.107 1.125-.208 1.673-.304l.857-3.43 2.127-.376-.88 3.55c2.351-.445 3.964-.05 4.598 2.3.507 1.889-.03 2.978-1.448 3.689 1.05.192 1.846.74 2.061 2.376zm-3.653-2.75c-.615-2.287-4.48-1.052-5.743-.703l1.014-4.066c1.263-.348 5.248-1.052 5.863 1.234.617 2.364-1.136 3.535-1.134 3.535zm.7 5.254c-.681-2.54-5.387-1.165-6.89-.756l1.109-4.446c1.503-.41 6.094-1.205 6.775 1.335.683 2.55-1.001 3.863-.994 3.867z"/>
</svg>